<svg xmlns="http://www.w3.org/2000/svg" xmlns:xlink="http://www.w3.org/1999/xlink" xmlns:inkscape="http://www.inkscape.org/namespaces/inkscape" version="1.1" width="238.907" height="149.795" viewBox="0 0 238.907 149.795">
<path transform="matrix(1,0,0,-1,45.753,26.447999)" stroke-width=".79701" stroke-linecap="butt" stroke-dasharray="2.98883,1.99255" stroke-miterlimit="10" stroke-linejoin="miter" fill="none" stroke="#000000" d="M35.70047 25.51216H-35.70047C-37.90141 25.51216-39.68558 23.728-39.68558 21.52705V-21.52705C-39.68558-23.728-37.90141-25.51216-35.70047-25.51216H35.70047C37.90141-25.51216 39.68558-23.728 39.68558-21.52705V21.52705C39.68558 23.728 37.90141 25.51216 35.70047 25.51216ZM-39.68558-25.51216"/>
<text xml:space="preserve" transform="matrix(1 0 -0 1 0 149.795)" font-size="6.9738" font-family="Linux Libertine T"><tspan y="-142.016" x="30.945 35.03862 38.15591 41.775316 43.616399 45.506299 48.491086 53.421564">ReplicaR</tspan></text>
<text xml:space="preserve" transform="matrix(1 0 -0 1 0 149.795)" font-size="5.4795" font-family="Linux Libertine T"><tspan y="-140.925" x="57.515">1</tspan></text>
<path transform="matrix(1,0,0,-1,45.753,26.447999)" stroke-width=".3985" stroke-linecap="butt" stroke-miterlimit="10" stroke-linejoin="miter" fill="none" stroke="#000000" d="M-34.0161 3.23314H34.0161V14.57169H-34.0161Z"/>
<text xml:space="preserve" transform="matrix(1 0 -0 1 -.0000019073487 149.795)" font-size="6.9738" font-family="Linux Libertine T"><tspan y="-130.785" x="19.657 24.503792 28.123194 31.742596 34.09974 37.781908 40.968935 44.748735 48.235635 51.93872 55.125749 58.612649 61.72994 65.1192">App-Language:L</tspan></text>
<text xml:space="preserve" transform="matrix(1 0 -0 1 -.0000019073487 149.795)" font-size="5.4795" font-family="Linux Libertine T"><tspan y="-129.694" x="68.802">1</tspan></text>
<path transform="matrix(1,0,0,-1,45.753,26.447999)" stroke-width=".3985" stroke-linecap="butt" stroke-miterlimit="10" stroke-linejoin="miter" fill="none" stroke="#000000" d="M-34.0161-20.2414H34.0161V-8.90285H-34.0161Z"/>
<text xml:space="preserve" transform="matrix(1 0 -0 1 0 149.795)" font-size="6.9738" font-family="Linux Libertine T"><tspan y="-107.311" x="19.3 23.39362 28.282254 31.96442 34.321565 38.00373 41.190759 44.97056 48.45746 52.160547 55.347574 58.834474 61.951765 65.341037">RDL-Language:L</tspan></text>
<text xml:space="preserve" transform="matrix(1 0 -0 1 0 149.795)" font-size="5.4795" font-family="Linux Libertine T"><tspan y="-106.21999" x="69.022998">x</tspan></text>
<path transform="matrix(1,0,0,-1,45.753,26.447999)" stroke-width=".79701" stroke-linecap="butt" stroke-miterlimit="10" stroke-linejoin="miter" fill="none" stroke="#000000" d="M-7.97021 2.32652V-7.99623"/>
<path transform="matrix(0,-1,-1,-0,37.782789,24.121479)" stroke-width=".6376" stroke-linecap="round" stroke-linejoin="round" fill="none" stroke="#000000" d="M-1.55415 2.0722C-1.42464 1.29512 0 .1295 .38852 0 0-.1295-1.42464-1.29512-1.55415-2.0722"/>
<path transform="matrix(0,1,1,0,37.782789,34.44423)" stroke-width=".6376" stroke-linecap="round" stroke-linejoin="round" fill="none" stroke="#000000" d="M-1.55415 2.0722C-1.42464 1.29512 0 .1295 .38852 0 0-.1295-1.42464-1.29512-1.55415-2.0722"/>
<text xml:space="preserve" transform="matrix(1 0 -0 1 0 149.795)" font-size="6.9738" font-family="Linux Libertine T"><tspan y="-118.757" x="41.17 44.55229 47.934587">FFI</tspan></text>
<text fill="#800080" xml:space="preserve" transform="matrix(1 0 -0 1 0 149.795)" font-size="6.9738" font-family="Linux Libertine T"><tspan y="-118.757" x="51.749258 53.82745">(L</tspan></text>
<text fill="#800080" xml:space="preserve" transform="matrix(1 0 -0 1 0 149.795)" font-size="5.4795" font-family="Linux Libertine T"><tspan y="-117.666" x="57.509">1</tspan></text>
<text fill="#800080" xml:space="preserve" transform="matrix(1 0 -0 1 0 149.795)" font-size="7.2727" font-family="txsys"><tspan y="-118.757" x="60.555">&#x2194;</tspan></text>
<text fill="#800080" xml:space="preserve" transform="matrix(1 0 -0 1 0 149.795)" font-size="6.9738" font-family="Linux Libertine T"><tspan y="-118.757" x="68.003">L</tspan></text>
<text fill="#800080" xml:space="preserve" transform="matrix(1 0 -0 1 0 149.795)" font-size="5.4795" font-family="Linux Libertine T"><tspan y="-117.666" x="71.685">x</tspan></text>
<text fill="#800080" xml:space="preserve" transform="matrix(1 0 -0 1 0 149.795)" font-size="6.9738" font-family="Linux Libertine T"><tspan y="-118.757" x="74.868">)</tspan></text>
<path transform="matrix(1,0,0,-1,45.753,26.447999)" stroke-width=".79701" stroke-linecap="butt" stroke-dasharray="2.98883,1.99255" stroke-miterlimit="10" stroke-linejoin="miter" fill="none" stroke="#000000" d="M183.10379 25.51216H111.70284C109.50189 25.51216 107.71773 23.728 107.71773 21.52705V-21.52705C107.71773-23.728 109.50189-25.51216 111.70284-25.51216H183.10379C185.30474-25.51216 187.0889-23.728 187.0889-21.52705V21.52705C187.0889 23.728 185.30474 25.51216 183.10379 25.51216ZM107.71773-25.51216"/>
<text xml:space="preserve" transform="matrix(1 0 -0 1 .000015258789 149.795)" font-size="6.9738" font-family="Linux Libertine T"><tspan y="-142.016" x="178.346 182.43962 185.55692 189.17632 191.0174 192.90729 195.89208 200.82256">ReplicaR</tspan></text>
<text xml:space="preserve" transform="matrix(1 0 -0 1 .000015258789 149.795)" font-size="5.4795" font-family="Linux Libertine T"><tspan y="-140.925" x="204.91599">2</tspan></text>
<path transform="matrix(1,0,0,-1,45.753,26.447999)" stroke-width=".3985" stroke-linecap="butt" stroke-miterlimit="10" stroke-linejoin="miter" fill="none" stroke="#000000" d="M113.38722 3.23314H181.41944V14.57169H113.38722Z"/>
<text xml:space="preserve" transform="matrix(1 0 -0 1 -.000015258789 149.795)" font-size="6.9738" font-family="Linux Libertine T"><tspan y="-130.785" x="167.059 171.90579 175.52519 179.14459 181.50174 185.1839 188.37093 192.15073 195.63762 199.34072 202.52774 206.01464 209.13193 212.5212">App-Language:L</tspan></text>
<text xml:space="preserve" transform="matrix(1 0 -0 1 -.000015258789 149.795)" font-size="5.4795" font-family="Linux Libertine T"><tspan y="-129.694" x="216.20401">2</tspan></text>
<path transform="matrix(1,0,0,-1,45.753,26.447999)" stroke-width=".3985" stroke-linecap="butt" stroke-miterlimit="10" stroke-linejoin="miter" fill="none" stroke="#000000" d="M113.38722-20.2414H181.41944V-8.90285H113.38722Z"/>
<text xml:space="preserve" transform="matrix(1 0 -0 1 -.000015258789 149.795)" font-size="6.9738" font-family="Linux Libertine T"><tspan y="-107.311" x="166.701 170.79463 175.68328 179.36544 181.72258 185.40474 188.59177 192.37157 195.85846 199.56156 202.74858 206.23548 209.35277 212.74204">RDL-Language:L</tspan></text>
<text xml:space="preserve" transform="matrix(1 0 -0 1 -.000015258789 149.795)" font-size="5.4795" font-family="Linux Libertine T"><tspan y="-106.21999" x="216.42401">x</tspan></text>
<path transform="matrix(1,0,0,-1,45.753,26.447999)" stroke-width=".79701" stroke-linecap="butt" stroke-miterlimit="10" stroke-linejoin="miter" fill="none" stroke="#000000" d="M139.4331 2.32652V-7.99623"/>
<path transform="matrix(0,-1,-1,-0,185.1861,24.121479)" stroke-width=".6376" stroke-linecap="round" stroke-linejoin="round" fill="none" stroke="#000000" d="M-1.55415 2.0722C-1.42464 1.29512 0 .1295 .38852 0 0-.1295-1.42464-1.29512-1.55415-2.0722"/>
<path transform="matrix(0,1,1,0,185.1861,34.44423)" stroke-width=".6376" stroke-linecap="round" stroke-linejoin="round" fill="none" stroke="#000000" d="M-1.55415 2.0722C-1.42464 1.29512 0 .1295 .38852 0 0-.1295-1.42464-1.29512-1.55415-2.0722"/>
<text xml:space="preserve" transform="matrix(1 0 -0 1 -.000015258789 149.795)" font-size="6.9738" font-family="Linux Libertine T"><tspan y="-118.757" x="188.571 191.9533 195.33559">FFI</tspan></text>
<text fill="#ec008c" xml:space="preserve" transform="matrix(1 0 -0 1 -.000015258789 149.795)" font-size="6.9738" font-family="Linux Libertine T"><tspan y="-118.757" x="199.15026 201.22844">(L</tspan></text>
<text fill="#ec008c" xml:space="preserve" transform="matrix(1 0 -0 1 -.000015258789 149.795)" font-size="5.4795" font-family="Linux Libertine T"><tspan y="-117.666" x="204.911">2</tspan></text>
<text fill="#ec008c" xml:space="preserve" transform="matrix(1 0 -0 1 -.000015258789 149.795)" font-size="7.2727" font-family="txsys"><tspan y="-118.757" x="207.957">&#x2194;</tspan></text>
<text fill="#ec008c" xml:space="preserve" transform="matrix(1 0 -0 1 -.000015258789 149.795)" font-size="6.9738" font-family="Linux Libertine T"><tspan y="-118.757" x="215.404">L</tspan></text>
<text fill="#ec008c" xml:space="preserve" transform="matrix(1 0 -0 1 -.000015258789 149.795)" font-size="5.4795" font-family="Linux Libertine T"><tspan y="-117.666" x="219.08602">x</tspan></text>
<text fill="#ec008c" xml:space="preserve" transform="matrix(1 0 -0 1 -.000015258789 149.795)" font-size="6.9738" font-family="Linux Libertine T"><tspan y="-118.757" x="222.26902">)</tspan></text>
<path transform="matrix(1,0,0,-1,45.753,26.447999)" stroke-width=".3985" stroke-linecap="butt" stroke-miterlimit="10" stroke-linejoin="miter" fill="none" stroke="#000000" d="M34.67363-14.57213H112.72969"/>
<path transform="matrix(-1,-0,0,1,80.42663,41.020128)" stroke-width=".31879" stroke-linecap="round" stroke-linejoin="round" fill="none" stroke="#000000" d="M-1.19551 1.59401C-1.09587 .99626 0 .09961 .29886 0 0-.09961-1.09587-.99626-1.19551-1.59401"/>
<path transform="matrix(1,0,0,-1,158.4827,41.020128)" stroke-width=".31879" stroke-linecap="round" stroke-linejoin="round" fill="none" stroke="#000000" d="M-1.19551 1.59401C-1.09587 .99626 0 .09961 .29886 0 0-.09961-1.09587-.99626-1.19551-1.59401"/>
<text xml:space="preserve" transform="matrix(1 0 -0 1 0 149.795)" font-size="6.9738" font-family="Linux Libertine T"><tspan y="-113.57" x="96.412 99.13178 102.72329 106.50309 109.48788 113.239788 115.778247 119.29304 123.07284 124.96274 127.91963 131.10666 133.31038 135.20027 138.71508">synchronization</tspan></text>
<text xml:space="preserve" transform="matrix(1 0 -0 1 -.0000038146974 149.795)" font-size="8.9664" font-family="Linux Libertine T"><tspan y="-87.309" x="37.506 41.854707 44.688089 48.02359 52.121236 54.954618 58.962598 63.445798 70.30509 74.47447 78.832149 83.18085 87.52955 92.434169 95.21375 99.73282 105.30992 111.10222 114.36599 118.885059 122.38195 125.878849 128.90949 133.64374 137.74138 142.60117 147.08437 151.84552 155.94316 160.42636 166.67595 169.33898 174.19876 177.03215 181.04013 184.3039 188.82297 193.53929 197.54727 200.88277 204.98041 209.40085 211.83075 214.19788 216.62778 219.46117">Strategy1:FFIforCross-LanguageInteroperability</tspan></text>
<path transform="matrix(1,0,0,-1,45.753,26.447999)" stroke-width=".3985" stroke-linecap="butt" stroke-miterlimit="10" stroke-linejoin="miter" fill="none" stroke="#000000" d="M-45.35506-42.5202H192.75838"/>
<path transform="matrix(1,0,0,-1,45.753,26.447999)" stroke-width=".79701" stroke-linecap="butt" stroke-dasharray="2.98883,1.99255" stroke-miterlimit="10" stroke-linejoin="miter" fill="none" stroke="#000000" d="M41.36975-53.85896H-41.36975C-43.5707-53.85896-45.35486-55.64313-45.35486-57.84407V-100.8982C-45.35486-103.09914-43.5707-104.8833-41.36975-104.8833H41.36975C43.5707-104.8833 45.35486-103.09914 45.35486-100.8982V-57.84407C45.35486-55.64313 43.5707-53.85896 41.36975-53.85896ZM-45.35486-104.8833"/>
<text xml:space="preserve" transform="matrix(1 0 -0 1 0 149.795)" font-size="6.9738" font-family="Linux Libertine T"><tspan y="-62.645" x="30.945 35.03862 38.15591 41.775316 43.616399 45.506299 48.491086 53.421564">ReplicaR</tspan></text>
<text xml:space="preserve" transform="matrix(1 0 -0 1 0 149.795)" font-size="5.4795" font-family="Linux Libertine T"><tspan y="-61.555" x="57.515">1</tspan></text>
<path transform="matrix(1,0,0,-1,45.753,26.447999)" stroke-width=".3985" stroke-linecap="butt" stroke-miterlimit="10" stroke-linejoin="miter" fill="none" stroke="#000000" d="M-34.0161-76.13799H34.0161V-64.799449H-34.0161Z"/>
<text xml:space="preserve" transform="matrix(1 0 -0 1 -.0000019073487 149.795)" font-size="6.9738" font-family="Linux Libertine T"><tspan y="-51.415" x="19.657 24.503792 28.123194 31.742596 34.09974 37.781908 40.968935 44.748735 48.235635 51.93872 55.125749 58.612649 61.72994 65.1192">App-Language:L</tspan></text>
<text xml:space="preserve" transform="matrix(1 0 -0 1 -.0000019073487 149.795)" font-size="5.4795" font-family="Linux Libertine T"><tspan y="-50.324" x="68.802">1</tspan></text>
<path transform="matrix(1,0,0,-1,45.753,26.447999)" stroke-width=".3985" stroke-linecap="butt" stroke-miterlimit="10" stroke-linejoin="miter" fill="none" stroke="#000000" d="M-42.98259-99.61253H25.049614V-88.27399H-42.98259Z"/>
<text xml:space="preserve" transform="matrix(1 0 -0 1 -.0000038146974 149.795)" font-size="6.9738" font-family="Linux Libertine T"><tspan y="-27.94" x="10.402 14.495621 19.384255 23.066422 25.423567 29.105734 32.29276 36.07256 39.55946 43.262548 46.449575 49.936475 53.053766 56.44303">RDL-Language:L</tspan></text>
<text xml:space="preserve" transform="matrix(1 0 -0 1 -.0000038146974 149.795)" font-size="5.4795" font-family="Linux Libertine T"><tspan y="-26.85" x="60.125">1</tspan></text>
<path transform="matrix(1,0,0,-1,45.753,26.447999)" stroke-width=".3985" stroke-linecap="butt" stroke-miterlimit="10" stroke-linejoin="miter" fill="none" stroke="#000000" d="M41.97531-93.94327 33.55373-86.55525 25.13213-93.94327 33.55373-101.33127Z"/>
<text xml:space="preserve" transform="matrix(1 0 -0 1 -.0000076293949 149.795)" font-size="5.9776" font-family="Linux Libertine T"><tspan y="-27.479" x="73.831 77.69253 81.88283">CDF</tspan></text>
<path transform="matrix(1,0,0,-1,45.753,26.447999)" stroke-width=".79701" stroke-linecap="butt" stroke-miterlimit="10" stroke-linejoin="miter" fill="none" stroke="#008080" d="M-8.96649-77.0446V-87.36737"/>
<path transform="matrix(0,-1,-1,-0,36.786508,103.4926)" stroke-width=".6376" stroke-linecap="round" stroke-linejoin="round" fill="none" stroke="#008080" d="M-1.55415 2.0722C-1.42464 1.29512 0 .1295 .38852 0 0-.1295-1.42464-1.29512-1.55415-2.0722"/>
<path transform="matrix(0,1,1,0,36.786508,113.81537)" stroke-width=".6376" stroke-linecap="round" stroke-linejoin="round" fill="none" stroke="#008080" d="M-1.55415 2.0722C-1.42464 1.29512 0 .1295 .38852 0 0-.1295-1.42464-1.29512-1.55415-2.0722"/>
<text fill="#008080" xml:space="preserve" transform="matrix(1 0 -0 1 -.0000038146974 149.795)" font-size="6.9738" font-family="Linux Libertine T"><tspan y="-38.895" x="40.173 45.047689 48.234716 50.438436 52.328336 55.738527">Native</tspan></text>
<path transform="matrix(1,0,0,-1,45.753,26.447999)" stroke-width=".79701" stroke-linecap="butt" stroke-dasharray="2.98883,1.99255" stroke-miterlimit="10" stroke-linejoin="miter" fill="none" stroke="#000000" d="M188.77307-53.85896H106.03357C103.83263-53.85896 102.04846-55.64313 102.04846-57.84407V-100.8982C102.04846-103.09914 103.83263-104.8833 106.03357-104.8833H188.77307C190.97402-104.8833 192.75818-103.09914 192.75818-100.8982V-57.84407C192.75818-55.64313 190.97402-53.85896 188.77307-53.85896ZM102.04846-104.8833"/>
<text xml:space="preserve" transform="matrix(1 0 -0 1 .000015258789 149.795)" font-size="6.9738" font-family="Linux Libertine T"><tspan y="-62.645" x="178.346 182.43962 185.55692 189.17632 191.0174 192.90729 195.89208 200.82256">ReplicaR</tspan></text>
<text xml:space="preserve" transform="matrix(1 0 -0 1 .000015258789 149.795)" font-size="5.4795" font-family="Linux Libertine T"><tspan y="-61.555" x="204.91599">2</tspan></text>
<path transform="matrix(1,0,0,-1,45.753,26.447999)" stroke-width=".3985" stroke-linecap="butt" stroke-miterlimit="10" stroke-linejoin="miter" fill="none" stroke="#000000" d="M113.38722-76.13799H181.41944V-64.799449H113.38722Z"/>
<text xml:space="preserve" transform="matrix(1 0 -0 1 -.000015258789 149.795)" font-size="6.9738" font-family="Linux Libertine T"><tspan y="-51.415" x="167.059 171.90579 175.52519 179.14459 181.50174 185.1839 188.37093 192.15073 195.63762 199.34072 202.52774 206.01464 209.13193 212.5212">App-Language:L</tspan></text>
<text xml:space="preserve" transform="matrix(1 0 -0 1 -.000015258789 149.795)" font-size="5.4795" font-family="Linux Libertine T"><tspan y="-50.324" x="216.20401">2</tspan></text>
<path transform="matrix(1,0,0,-1,45.753,26.447999)" stroke-width=".3985" stroke-linecap="butt" stroke-miterlimit="10" stroke-linejoin="miter" fill="none" stroke="#000000" d="M122.35371-99.61253H190.38591V-88.27399H122.35371Z"/>
<text xml:space="preserve" transform="matrix(1 0 -0 1 0 149.795)" font-size="6.9738" font-family="Linux Libertine T"><tspan y="-27.94" x="175.736 179.82962 184.71826 188.40042 190.75757 194.43973 197.62676 201.40656 204.89345 208.59654 211.78357 215.27046 218.38776 221.77703">RDL-Language:L</tspan></text>
<text xml:space="preserve" transform="matrix(1 0 -0 1 0 149.795)" font-size="5.4795" font-family="Linux Libertine T"><tspan y="-26.85" x="225.45899">2</tspan></text>
<path transform="matrix(1,0,0,-1,45.753,26.447999)" stroke-width=".3985" stroke-linecap="butt" stroke-miterlimit="10" stroke-linejoin="miter" fill="none" stroke="#000000" d="M122.27118-93.94327 113.84958-86.55525 105.428-93.94327 113.84958-101.33127Z"/>
<text xml:space="preserve" transform="matrix(1 0 -0 1 0 149.795)" font-size="5.9776" font-family="Linux Libertine T"><tspan y="-27.479" x="154.126 157.98754 162.17783">CDF</tspan></text>
<path transform="matrix(1,0,0,-1,45.753,26.447999)" stroke-width=".79701" stroke-linecap="butt" stroke-miterlimit="10" stroke-linejoin="miter" fill="none" stroke="#008080" d="M147.40332-77.0446V-87.36737"/>
<path transform="matrix(0,-1,-1,-0,193.15631,103.4926)" stroke-width=".6376" stroke-linecap="round" stroke-linejoin="round" fill="none" stroke="#008080" d="M-1.55415 2.0722C-1.42464 1.29512 0 .1295 .38852 0 0-.1295-1.42464-1.29512-1.55415-2.0722"/>
<path transform="matrix(0,1,1,0,193.15631,113.81537)" stroke-width=".6376" stroke-linecap="round" stroke-linejoin="round" fill="none" stroke="#008080" d="M-1.55415 2.0722C-1.42464 1.29512 0 .1295 .38852 0 0-.1295-1.42464-1.29512-1.55415-2.0722"/>
<text fill="#008080" xml:space="preserve" transform="matrix(1 0 -0 1 -.000015258789 149.795)" font-size="6.9738" font-family="Linux Libertine T"><tspan y="-38.895" x="196.541 201.41568 204.6027 206.80643 208.69632 212.1065">Native</tspan></text>
<path transform="matrix(1,0,0,-1,45.753,26.447999)" stroke-width=".3985" stroke-linecap="butt" stroke-miterlimit="10" stroke-linejoin="miter" fill="none" stroke="#000000" d="M42.71538-93.94327H104.68793"/>
<path transform="matrix(-1,-0,0,1,88.46838,120.391269)" stroke-width=".31879" stroke-linecap="round" stroke-linejoin="round" fill="none" stroke="#000000" d="M-1.19551 1.59401C-1.09587 .99626 0 .09961 .29886 0 0-.09961-1.09587-.99626-1.19551-1.59401"/>
<path transform="matrix(1,0,0,-1,150.44092,120.391269)" stroke-width=".31879" stroke-linecap="round" stroke-linejoin="round" fill="none" stroke="#000000" d="M-1.19551 1.59401C-1.09587 .99626 0 .09961 .29886 0 0-.09961-1.09587-.99626-1.19551-1.59401"/>
<text xml:space="preserve" transform="matrix(1 0 -0 1 0 149.795)" font-size="6.9738" font-family="Linux Libertine T"><tspan y="-34.2" x="96.412 99.13178 102.72329 106.50309 109.48788 113.239788 115.778247 119.29304 123.07284 124.96274 127.91963 131.10666 133.31038 135.20027 138.71508">synchronization</tspan></text>
<text xml:space="preserve" transform="matrix(1 0 -0 1 0 149.795)" font-size="8.9664" font-family="Linux Libertine T"><tspan y="-5.105" x="34.973 39.321706 42.155088 45.49059 49.588235 52.421617 56.429597 60.912797 67.772098 71.94147 76.29914 82.09144 88.376888 94.967189 97.74677 102.26584 107.84294 113.63524 116.89901 121.418079 124.91497 128.41187 131.4425 136.17676 140.2744 145.13419 149.61739 154.37854 158.47618 162.95938 169.20897 171.872 176.73178 179.56517 183.57315 186.83692 191.35599 196.07231 200.08029 203.41579 207.51343 211.93387 214.36377 216.7309 219.1608 221.99419">Strategy2:CDFforCross-LanguageInteroperability</tspan></text>
</svg>
