<svg xml:space="preserve" style="max-height: 500px" viewBox="100 202 766 558" y="0px" x="0px" xmlns:xlink="http://www.w3.org/1999/xlink" xmlns="http://www.w3.org/2000/svg" id="Layer_1" version="1.1" width="766" height="558">
<style type="text/css">
	.st0{fill:#034EA2;}
	.st1{fill:#A6A8AB;}
	.st2{fill:#010101;}
	.st3{fill-rule:evenodd;clip-rule:evenodd;fill:#A6A8AB;}
	.st4{fill-rule:evenodd;clip-rule:evenodd;fill:#010101;}
	.st5{fill-rule:evenodd;clip-rule:evenodd;fill:#034EA2;}
	.st6{fill:#FFFFFF;}
</style>
<rect height="1000" width="1000" class="st2" x="0"/>
<g>
	<g>
		<g>
			<g>
				<polygon points="685.3,522.3 684.2,459.6 703.9,459.6 703.9,538.7 675.5,538.7 655.8,473.8 655.3,473.8 &#10;&#9;&#9;&#9;&#9;&#9;656.4,538.7 636.8,538.7 636.8,459.6 666.5,459.6 684.8,522.3" class="st6"/>
				<polygon points="325.8,467 314.9,539.5 293.3,539.5 308.1,459.6 343.6,459.6 358.4,539.5 336.9,539.5 326.2,467" class="st6"/>
				<polygon points="418.9,520.7 428.8,459.6 461.4,459.6 463.1,539.5 443.1,539.5 442.6,467.7 442.2,467.7 &#10;&#9;&#9;&#9;&#9;&#9;428.9,539.5 408.6,539.5 395.2,467.7 394.8,467.7 394.3,539.5 374.3,539.5 376.1,459.6 408.7,459.6 418.5,520.7" class="st6"/>
				<path d="M259.6,517c0.8,1.9,0.5,4.4,0.2,5.9c-0.7,2.7-2.5,5.4-7.8,5.4c-5,0-8-2.9-8-7.3v-7.7h-21.4l0,6.2&#10;&#9;&#9;&#9;&#9;&#9;c0,17.8,14,23.2,29,23.2c14.5,0,26.3-4.9,28.2-18.3c1-6.9,0.2-11.4-0.1-13.1c-3.4-16.7-33.7-21.7-35.9-31.1&#10;&#9;&#9;&#9;&#9;&#9;c-0.4-1.6-0.3-3.3-0.1-4.2c0.6-2.5,2.3-5.3,7.3-5.3c4.7,0,7.4,2.9,7.4,7.3c0,1.5,0,4.9,0,4.9h19.9v-5.6&#10;&#9;&#9;&#9;&#9;&#9;c0-17.4-15.6-20.1-26.9-20.1c-14.2,0-25.8,4.7-27.9,17.7c-0.6,3.6-0.7,6.8,0.2,10.8C227.2,501.9,255.5,506.6,259.6,517z" class="st6"/>
				<path d="M519.4,516.8c0.8,1.9,0.5,4.3,0.2,5.8c-0.7,2.7-2.4,5.3-7.7,5.3c-4.9,0-8-2.9-8-7.2l0-7.7h-21.2l0,6.1&#10;&#9;&#9;&#9;&#9;&#9;c0,17.6,13.9,22.9,28.8,22.9c14.3,0,26.1-4.9,27.9-18.1c1-6.9,0.3-11.3-0.1-13c-3.4-16.6-33.4-21.5-35.6-30.8&#10;&#9;&#9;&#9;&#9;&#9;c-0.4-1.6-0.3-3.3-0.1-4.1c0.6-2.6,2.3-5.3,7.2-5.3c4.6,0,7.3,2.8,7.3,7.2c0,1.5,0,4.9,0,4.9h19.8v-5.6&#10;&#9;&#9;&#9;&#9;&#9;c0-17.2-15.5-19.9-26.7-19.9c-14.1,0-25.6,4.6-27.6,17.6c-0.6,3.5-0.6,6.7,0.2,10.7C487.2,501.9,515.3,506.6,519.4,516.8z" class="st6"/>
				<path d="M586.5,527.6c5.5,0,7.3-3.8,7.6-5.8c0.2-0.9,0.2-2,0.2-3.1v-59.1h20.2v57.3c0,1.5-0.1,4.5-0.2,5.2&#10;&#9;&#9;&#9;&#9;&#9;c-1.4,14.9-13.2,19.8-27.9,19.8c-14.7,0-26.5-4.8-27.9-19.8c-0.1-0.8-0.2-3.8-0.2-5.2v-57.3h20.2v59.1c0,1,0,2.2,0.2,3.1&#10;&#9;&#9;&#9;&#9;&#9;C579.2,523.7,580.9,527.6,586.5,527.6z" class="st6"/>
				<path d="M753.1,526.7c5.8,0,7.8-3.7,8.2-5.8c0.1-0.9,0.2-2,0.2-3v-11.6h-8.2v-11.7h28.3v21.4c0,1.5,0,2.6-0.3,5.3&#10;&#9;&#9;&#9;&#9;&#9;c-1.3,14.5-13.9,19.7-28.1,19.7c-14.2,0-26.8-5.2-28.1-19.7c-0.2-2.7-0.3-3.8-0.3-5.3l0-33.6c0-1.4,0.2-3.9,0.3-5.3&#10;&#9;&#9;&#9;&#9;&#9;c1.8-14.9,13.9-19.7,28.1-19.7c14.2,0,26.6,4.8,28,19.7c0.3,2.5,0.2,5.3,0.2,5.3v2.7h-20.1v-4.5c0,0,0-1.9-0.3-3&#10;&#9;&#9;&#9;&#9;&#9;c-0.3-1.8-1.9-5.8-8-5.8c-5.8,0-7.5,3.8-8,5.8c-0.2,1.1-0.3,2.5-0.3,3.8v36.5c0,1,0,2.1,0.2,3&#10;&#9;&#9;&#9;&#9;&#9;C745.3,523.1,747.3,526.7,753.1,526.7z" class="st6"/>
			</g>
		</g>
	</g>
</g>
</svg>